<?xml version="1.0" encoding="utf-8"?><!-- Uploaded to: SVG Repo, www.svgrepo.com, Generator: SVG Repo Mixer Tools -->
<svg fill="#000000" width="800px" height="800px" viewBox="0 0 24 24" id="playlist-3" data-name="Flat Color" xmlns="http://www.w3.org/2000/svg" class="icon flat-color"><path id="secondary" d="M21,20H11a1,1,0,0,1,0-2H21a1,1,0,0,1,0,2Zm0-4H15a1,1,0,0,1,0-2h6a1,1,0,0,1,0,2Zm0-4H15a1,1,0,0,1,0-2h6a1,1,0,0,1,0,2Z" style="fill: rgb(44, 169, 188);"></path><path id="primary" d="M5,22a3,3,0,0,1-3-3,1,1,0,0,1,2,0,1,1,0,0,0,2,0V17.09A4.73,4.73,0,0,1,2,12.5,4.4,4.4,0,0,1,5,8.19l1-.38V5a3,3,0,0,1,6,0A3.91,3.91,0,0,1,9.48,8.64L8,9.19v5.75a3.28,3.28,0,0,0,.64-.34A3.14,3.14,0,0,0,10,12a1,1,0,0,1,2,0,5.16,5.16,0,0,1-2.22,4.24A5.25,5.25,0,0,1,8,17v2A3,3,0,0,1,5,22ZM6,9.94l-.31.12A2.41,2.41,0,0,0,4,12.5,2.79,2.79,0,0,0,5.74,15L6,15ZM9,4A1,1,0,0,0,8,5V7.06l.78-.29A1.91,1.91,0,0,0,10,5,1,1,0,0,0,9,4Z" style="fill: rgb(0, 0, 0);"></path></svg>